<?xml version="1.0" encoding="utf-8"?>
<!-- Generator: Adobe Illustrator 16.0.2, SVG Export Plug-In . SVG Version: 6.00 Build 0)  -->
<!DOCTYPE svg PUBLIC "-//W3C//DTD SVG 1.1//EN" "http://www.w3.org/Graphics/SVG/1.1/DTD/svg11.dtd">
<svg version="1.1" id="Layer_1" xmlns:sketch="http://www.bohemiancoding.com/sketch/ns"
	 xmlns="http://www.w3.org/2000/svg" xmlns:xlink="http://www.w3.org/1999/xlink" x="0px" y="0px" width="221px" height="464px"
	 viewBox="0 0 221 464" enable-background="new 0 0 221 464" xml:space="preserve">
<title>apple-iphone-5s</title>
<description>Created with Sketch (http://www.bohemiancoding.com/sketch)</description>
<g id="Page-1" sketch:type="MSPage">
	<path id="Apple-iPhone-5S" sketch:type="MSShapeGroup" d="M3,164H0v-17h3v-21H0v-17h3V87H0V66h3V34.006C3,16.333,17.323,2,34.991,2
		H149V0h36v2h4.009C206.676,2,221,16.33,221,34.006v397.988C221,449.667,206.678,464,189.009,464H34.991
		C17.325,464,3,449.671,3,431.994V164z M94.009,40C93.452,40,93,40.443,93,41.009v1.981C93,43.548,93.451,44,94,44h22.405h12.588
		c0.557,0,1.008-0.443,1.008-1.009v-1.981c0-0.557-0.441-1.009-1.009-1.009H94.009z M111.5,29c2.485,0,4.5-2.015,4.5-4.5
		s-2.015-4.5-4.5-4.5s-4.5,2.015-4.5,4.5S109.015,29,111.5,29z M17.995,66C16.893,66,16,66.902,16,68.01v330.98
		c0,1.11,0.899,2.01,1.995,2.01h188.011c1.102,0,1.994-0.902,1.994-2.01V68.01c0-1.11-0.898-2.01-1.994-2.01H17.995z M112,450
		c10.493,0,19-8.507,19-19s-8.507-19-19-19s-19,8.507-19,19S101.507,450,112,450z M81,45c1.657,0,3-1.343,3-3s-1.343-3-3-3
		s-3,1.343-3,3S79.343,45,81,45z M112,448c9.389,0,17-7.611,17-17s-7.611-17-17-17s-17,7.611-17,17S102.611,448,112,448z"/>
</g>
</svg>
